<?xml version="1.0" standalone="no"?>
<!DOCTYPE svg PUBLIC "-//W3C//DTD SVG 20010904//EN"
 "http://www.w3.org/TR/2001/REC-SVG-20010904/DTD/svg10.dtd">
<svg version="1.0" xmlns="http://www.w3.org/2000/svg"
 width="396.000000pt" height="396.000000pt" viewBox="0 0 396.000000 396.000000"
 preserveAspectRatio="xMidYMid meet">

<g transform="translate(0.000000,396.000000) scale(0.100000,-0.100000)"
fill="#000000" stroke="none">
<path d="M1407 3939 c-125 -30 -142 -43 -230 -179 -23 -36 -85 -115 -138 -175
-181 -209 -230 -300 -264 -483 -12 -70 -31 -154 -40 -186 -29 -100 -11 -179
65 -291 23 -34 29 -54 34 -135 4 -52 16 -165 27 -250 17 -130 19 -167 10 -230
-14 -91 -9 -118 37 -235 39 -99 38 -79 31 -420 -4 -190 6 -246 61 -355 36 -71
50 -130 85 -345 50 -311 92 -401 232 -501 56 -40 75 -48 114 -49 34 -1 59 -10
97 -33 59 -39 149 -72 192 -72 17 0 48 9 70 20 47 24 113 26 190 5 96 -26 178
-20 280 20 68 27 105 35 152 35 146 1 317 118 432 298 53 83 98 171 116 227 7
22 32 89 56 149 51 127 98 290 116 396 8 54 18 81 35 98 13 12 43 58 68 100
25 42 68 108 94 147 63 90 89 169 74 233 -16 76 -94 335 -109 363 -7 15 -28
32 -45 38 -29 10 -31 13 -24 43 23 111 32 543 16 775 -7 94 -13 122 -40 180
-40 85 -89 136 -157 164 -30 12 -54 24 -54 27 0 3 11 24 25 47 l24 42 -19 52
c-10 29 -24 60 -31 69 -63 84 -135 128 -228 140 -48 7 -68 16 -106 48 -142
120 -243 172 -311 161 -20 -3 -53 1 -76 9 -81 28 -269 56 -345 51 -39 -3 -88
-1 -110 5 -21 5 -103 11 -183 12 -114 3 -161 0 -223 -15z m406 -197 c81 -88
97 -142 77 -274 -16 -108 -45 -211 -77 -270 -28 -51 -34 -56 -51 -35 -8 9 -5
47 10 137 11 69 21 170 22 225 1 94 -1 104 -33 172 -49 105 -25 126 52 45z
m-223 -29 c56 -65 107 -174 122 -260 14 -83 -1 -229 -27 -270 -25 -37 -33 -20
-23 49 22 153 -33 364 -133 517 -22 33 -22 34 -2 22 12 -6 40 -32 63 -58z
m-95 -90 c73 -157 100 -309 76 -424 -21 -99 -100 -194 -133 -161 -8 8 -3 20
20 46 55 63 53 152 -8 411 -36 153 -39 205 -10 205 14 0 28 -19 55 -77z m550
41 c25 -10 45 -59 45 -110 0 -77 -28 -171 -91 -300 -60 -123 -86 -158 -113
-152 -12 2 -7 21 29 99 64 139 96 256 102 372 3 53 7 97 9 97 1 0 10 -3 19 -6z
m340 -79 c-12 -82 -37 -175 -52 -187 -14 -11 -15 -6 -9 47 7 60 34 182 43 199
11 18 23 -21 18 -59z m-1060 -46 c57 -69 85 -158 85 -277 0 -64 -17 -112 -39
-112 -4 0 -9 26 -10 58 -2 68 -15 156 -29 192 -7 18 -8 0 -5 -61 6 -91 -4
-129 -34 -129 -9 0 -24 7 -33 15 -16 14 -18 13 -24 -16 -11 -55 -32 -70 -86
-63 -35 5 -54 2 -72 -10 -14 -9 -27 -13 -31 -10 -4 4 -18 -1 -32 -10 -33 -21
-49 -16 -69 23 -15 28 -15 31 2 43 11 7 24 23 31 36 9 16 18 21 32 17 17 -6
18 -4 9 20 -17 45 17 84 48 53 20 -20 26 0 7 28 -17 26 -17 28 0 40 25 18 50
3 75 -46 11 -21 24 -41 30 -45 15 -9 11 54 -6 100 -27 69 -27 74 -10 81 23 9
60 -28 91 -90 21 -41 25 -45 25 -24 0 14 -7 58 -16 97 -26 115 3 158 61 90z
m1186 -391 c19 -6 53 -24 75 -39 23 -16 75 -45 115 -65 41 -20 84 -46 96 -57
32 -28 51 -97 58 -207 3 -52 10 -156 15 -230 23 -335 33 -695 22 -768 -6 -41
-8 -80 -5 -88 9 -24 48 -15 80 19 34 35 101 163 127 244 20 61 47 98 86 118
59 30 66 24 99 -82 71 -233 84 -322 58 -386 -8 -18 -37 -62 -65 -99 -28 -37
-63 -89 -78 -115 -45 -77 -84 -133 -95 -133 -5 0 -32 20 -58 45 -49 45 -65 53
-76 35 -12 -19 54 -110 80 -110 7 0 20 -8 29 -19 16 -18 16 -23 -4 -102 -35
-136 -174 -521 -221 -613 -75 -146 -183 -268 -282 -318 -84 -42 -223 -78 -260
-65 -21 7 -37 4 -70 -14 -57 -30 -160 -36 -261 -15 -99 20 -139 20 -179 -1
-19 -9 -55 -16 -88 -16 -46 0 -71 7 -139 41 -46 23 -92 42 -103 42 -36 0 -144
60 -180 100 -52 57 -96 149 -118 250 -15 69 -69 364 -69 377 0 12 32 -2 60
-27 39 -33 65 -38 74 -15 7 21 -62 96 -127 138 -56 36 -88 90 -107 179 -7 38
-10 142 -9 300 3 233 2 245 -20 301 -27 70 -22 79 51 95 155 34 317 35 403 2
15 -6 40 -10 56 -10 18 0 46 -12 66 -27 l36 -28 -6 35 c-7 31 -62 122 -105
173 -8 9 -28 17 -44 17 -16 0 -60 13 -97 29 -114 48 -167 56 -276 41 -107 -14
-121 -10 -129 44 -30 194 -38 272 -43 393 l-6 142 43 71 c54 89 121 165 179
202 58 36 115 37 196 2 33 -14 93 -37 134 -51 63 -22 78 -24 111 -14 20 6 58
8 83 5 38 -5 54 -2 91 19 39 22 50 24 75 14 47 -17 186 31 377 129 164 86 252
123 290 124 12 0 36 -5 55 -12z m529 -205 c37 -42 50 -64 47 -80 -2 -13 2 -28
9 -34 17 -14 18 -46 2 -52 -9 -4 -4 -13 13 -30 22 -20 26 -32 25 -68 -1 -25
-5 -49 -8 -54 -3 -6 -4 -35 -2 -65 3 -30 4 -61 4 -67 -1 -38 -1 -52 6 -95 6
-47 1 -56 -22 -40 -20 13 -64 130 -64 171 0 22 -5 52 -11 68 -7 15 -15 62 -20
103 -19 176 -29 242 -39 260 -12 23 -13 40 -1 40 5 0 33 -26 61 -57z"/>
<path d="M2537 2703 c-3 -5 -21 -59 -41 -120 -34 -107 -48 -213 -27 -213 24 0
100 240 101 318 0 21 -23 31 -33 15z"/>
<path d="M2230 2219 c-190 -40 -269 -73 -345 -146 -75 -74 -98 -122 -43 -92
12 7 37 14 53 15 17 1 66 9 110 19 63 15 121 18 275 18 194 -1 195 -1 319 -37
123 -37 151 -39 151 -13 0 41 -45 72 -273 191 -115 60 -146 65 -247 45z"/>
<path d="M2098 1919 c-16 -6 -28 -15 -28 -20 0 -16 44 -19 164 -11 67 5 138 5
161 0 22 -5 90 -36 150 -68 72 -40 112 -57 119 -50 5 5 8 11 5 13 -16 14 -129
82 -181 109 -62 32 -65 33 -213 35 -87 1 -162 -2 -177 -8z"/>
<path d="M1795 1901 c-3 -5 2 -58 10 -117 8 -59 15 -153 15 -209 0 -96 -2
-107 -40 -198 -22 -52 -40 -107 -40 -122 0 -29 26 -85 39 -85 12 0 21 36 21
83 0 21 14 73 30 115 17 42 33 95 37 118 7 52 -26 394 -39 412 -12 14 -25 16
-33 3z"/>
<path d="M3122 1788 c-75 -112 -77 -117 -77 -195 0 -40 3 -73 6 -73 17 0 39
41 39 74 0 25 12 58 38 102 40 69 60 77 76 32 8 -22 5 -34 -18 -67 -30 -42
-31 -74 -4 -79 10 -2 29 16 53 52 l37 55 -17 58 c-19 64 -49 113 -70 113 -8 0
-36 -33 -63 -72z"/>
<path d="M2160 1788 c-141 -87 -152 -98 -99 -98 19 0 43 10 61 25 32 27 68 33
68 11 0 -8 12 -24 28 -36 24 -20 36 -22 105 -18 68 4 81 8 107 33 17 16 30 37
30 47 0 25 23 23 70 -7 43 -27 64 -32 58 -12 -2 6 -34 28 -72 46 -64 33 -76
35 -185 39 l-116 4 -55 -34z"/>
<path d="M1130 1804 c-44 -8 -100 -37 -100 -51 0 -17 45 -17 73 1 43 28 130
36 214 21 43 -8 88 -17 101 -21 39 -11 23 6 -25 28 -36 16 -72 22 -143 24 -52
1 -106 0 -120 -2z"/>
<path d="M1250 1743 c-30 -6 -138 -55 -163 -75 -11 -8 -16 -20 -12 -29 7 -19
47 -39 77 -39 21 0 21 0 -3 26 -24 25 -24 26 -5 40 32 23 53 17 60 -16 14 -71
138 -75 200 -8 23 25 32 29 45 21 20 -13 18 -45 -4 -58 -61 -36 -72 -64 -20
-51 35 9 75 53 75 81 0 64 -147 127 -250 108z"/>
<path d="M2650 1134 c-142 -168 -158 -190 -166 -233 l-7 -33 31 16 c19 10 60
57 103 119 39 56 96 134 125 173 30 39 54 76 54 83 0 30 -35 -1 -140 -125z"/>
<path d="M1932 1219 c-34 -18 -62 -38 -62 -46 0 -26 31 -25 81 1 61 31 79 33
79 7 0 -64 -40 -95 -131 -104 -32 -3 -78 -16 -105 -31 -27 -14 -56 -26 -64
-26 -8 0 -44 14 -79 30 -66 31 -121 37 -129 13 -2 -7 3 -13 12 -13 9 0 45 -16
82 -35 83 -44 142 -47 196 -10 24 16 61 28 108 35 39 6 81 15 92 21 28 15 70
111 66 151 -3 31 -6 33 -43 36 -30 2 -57 -5 -103 -29z"/>
<path d="M2145 720 l7 -23 -118 7 c-82 5 -133 4 -164 -5 -25 -6 -61 -11 -80
-10 -19 1 -87 3 -150 5 -63 2 -129 6 -147 11 -28 6 -36 3 -65 -26 -27 -27 -30
-34 -16 -37 9 -2 25 1 35 5 10 5 99 6 198 2 164 -7 185 -5 240 13 53 18 75 19
222 12 146 -6 163 -5 163 9 0 23 -42 48 -91 54 -39 6 -41 5 -34 -17z"/>
<path d="M1796 562 c-59 -20 -68 -37 -26 -45 37 -8 148 2 174 15 15 8 16 12 5
23 -24 23 -99 27 -153 7z"/>
</g>
</svg>
